<svg width="20" height="20" viewBox="0 0 20 20" fill="none" xmlns="http://www.w3.org/2000/svg">
<path d="M9.99996 1.66667C6.77496 1.66667 4.16663 4.27501 4.16663 7.5C4.16663 11.875 9.99996 18.3333 9.99996 18.3333C9.99996 18.3333 15.8333 11.875 15.8333 7.5C15.8333 4.27501 13.225 1.66667 9.99996 1.66667ZM5.83329 7.5C5.83329 5.20001 7.69996 3.33334 9.99996 3.33334C12.3 3.33334 14.1666 5.20001 14.1666 7.5C14.1666 9.9 11.7666 13.4917 9.99996 15.7333C8.26663 13.5083 5.83329 9.875 5.83329 7.5Z" fill="black"/>
<path d="M9.99996 9.58334C11.1506 9.58334 12.0833 8.6506 12.0833 7.50001C12.0833 6.34941 11.1506 5.41667 9.99996 5.41667C8.84937 5.41667 7.91663 6.34941 7.91663 7.50001C7.91663 8.6506 8.84937 9.58334 9.99996 9.58334Z" fill="black"/>
</svg>
