<svg width="20" height="20" viewBox="0 0 20 20" fill="none" xmlns="http://www.w3.org/2000/svg">
<path d="M9.99996 18.3333C8.86107 18.3333 7.78468 18.1144 6.77079 17.6767C5.7569 17.2389 4.87135 16.6417 4.11413 15.885C3.35746 15.1283 2.76024 14.2431 2.32246 13.2292C1.88468 12.2153 1.66607 11.1389 1.66663 10C1.66663 8.84723 1.88552 7.76723 2.32329 6.76001C2.76107 5.75278 3.35829 4.87112 4.11496 4.11501C4.87163 3.35778 5.75663 2.76056 6.76996 2.32334C7.78329 1.88612 8.85996 1.66723 9.99996 1.66667C11.1527 1.66667 12.2327 1.88556 13.24 2.32334C14.2472 2.76112 15.1288 3.35834 15.885 4.11501C16.6422 4.87167 17.2394 5.75362 17.6766 6.76084C18.1138 7.76806 18.3327 8.84778 18.3333 10V11.2083C18.3333 12.0278 18.0522 12.7258 17.49 13.3025C16.9277 13.8792 16.2366 14.1672 15.4166 14.1667C14.9166 14.1667 14.4513 14.0556 14.0208 13.8333C13.5902 13.6111 13.2361 13.3194 12.9583 12.9583C12.5833 13.3333 12.1422 13.6286 11.635 13.8442C11.1277 14.0597 10.5827 14.1672 9.99996 14.1667C8.84718 14.1667 7.8644 13.7603 7.05163 12.9475C6.23885 12.1347 5.83274 11.1522 5.83329 10C5.83329 8.84723 6.23968 7.86445 7.05246 7.05167C7.86524 6.23889 8.84774 5.83278 9.99996 5.83334C11.1527 5.83334 12.1355 6.23973 12.9483 7.05251C13.7611 7.86528 14.1672 8.84778 14.1666 10V11.2083C14.1666 11.6111 14.2916 11.9269 14.5416 12.1558C14.7916 12.3847 15.0833 12.4994 15.4166 12.5C15.75 12.5 16.0416 12.3853 16.2916 12.1558C16.5416 11.9264 16.6666 11.6106 16.6666 11.2083V10C16.6666 8.18056 16.0102 6.61445 14.6975 5.30167C13.3847 3.98889 11.8188 3.33278 9.99996 3.33334C8.18052 3.33334 6.6144 3.98973 5.30163 5.3025C3.98885 6.61528 3.33274 8.18112 3.33329 10C3.33329 11.8194 3.98968 13.3856 5.30246 14.6983C6.61524 16.0111 8.18107 16.6672 9.99996 16.6667H14.1666V18.3333H9.99996ZM9.99996 12.5C10.6944 12.5 11.2847 12.2569 11.7708 11.7708C12.2569 11.2847 12.5 10.6944 12.5 10C12.5 9.30556 12.2569 8.71528 11.7708 8.22917C11.2847 7.74306 10.6944 7.5 9.99996 7.5C9.30552 7.5 8.71524 7.74306 8.22913 8.22917C7.74302 8.71528 7.49996 9.30556 7.49996 10C7.49996 10.6944 7.74302 11.2847 8.22913 11.7708C8.71524 12.2569 9.30552 12.5 9.99996 12.5Z" fill="black"/>
</svg>
